<?xml version="1.0" encoding="UTF-8"?>
<svg xmlns="http://www.w3.org/2000/svg" xmlns:xlink="http://www.w3.org/1999/xlink" width="32px" height="31px" viewBox="0 0 32 31" version="1.1">
<g id="surface1">
<path style=" stroke:none;fill-rule:nonzero;fill:rgb(0%,0%,0%);fill-opacity:1;" d="M 13.992188 0.492188 C 11 0.859375 8.183594 2.046875 5.816406 3.949219 C 4.492188 5.003906 3.058594 6.703125 2.160156 8.265625 C -1.082031 13.941406 -0.191406 21.019531 4.359375 25.804688 C 5.734375 27.25 6.96875 28.171875 8.714844 29.042969 C 14.367188 31.875 21.066406 31.15625 26.023438 27.183594 C 27.34375 26.132812 28.78125 24.429688 29.675781 22.871094 C 32.917969 17.195312 32.03125 10.117188 27.476562 5.332031 C 26.101562 3.882812 24.867188 2.964844 23.125 2.089844 C 20.292969 0.671875 17.082031 0.113281 13.992188 0.492188 Z M 27.007812 7.0625 C 27.464844 7.21875 27.898438 7.675781 28.089844 8.199219 C 28.316406 8.816406 28.382812 9.585938 28.382812 11.738281 C 28.382812 12.992188 28.410156 13.722656 28.464844 13.84375 C 28.535156 14.007812 28.816406 14.195312 29.140625 14.289062 C 29.25 14.328125 29.265625 14.445312 29.265625 15.441406 L 29.265625 16.554688 L 28.933594 16.6875 C 28.75 16.753906 28.550781 16.890625 28.492188 16.972656 C 28.417969 17.097656 28.390625 17.679688 28.359375 19.5625 C 28.324219 22.234375 28.28125 22.5625 27.851562 23.242188 C 27.433594 23.914062 26.75 24.152344 25.507812 24.0625 L 24.78125 24.019531 L 24.78125 21.488281 L 25.207031 21.539062 C 25.949219 21.621094 25.910156 21.734375 25.957031 19.097656 C 25.984375 17.34375 26.015625 16.792969 26.09375 16.648438 C 26.15625 16.546875 26.398438 16.253906 26.640625 16 L 27.074219 15.539062 L 26.699219 15.066406 C 25.992188 14.1875 26 14.207031 25.957031 11.910156 C 25.917969 9.855469 25.890625 9.632812 25.617188 9.527344 C 25.558594 9.503906 25.339844 9.480469 25.140625 9.480469 L 24.78125 9.480469 L 24.78125 6.945312 L 25.71875 6.945312 C 26.390625 6.945312 26.765625 6.980469 27.007812 7.0625 Z M 6.984375 8.363281 L 6.984375 9.632812 L 6.558594 9.632812 C 5.832031 9.632812 5.851562 9.5625 5.808594 12.125 C 5.757812 14.53125 5.742188 14.625 5.257812 15.320312 L 4.992188 15.6875 L 5.226562 15.964844 C 5.351562 16.105469 5.535156 16.394531 5.632812 16.605469 C 5.800781 16.976562 5.808594 17.03125 5.808594 19.203125 C 5.808594 21.347656 5.816406 21.4375 5.957031 21.578125 C 6.089844 21.710938 6.160156 21.726562 6.542969 21.683594 L 6.984375 21.628906 L 6.984375 24.191406 L 6.382812 24.207031 C 4.90625 24.25 4.476562 24.132812 4.007812 23.570312 C 3.859375 23.398438 3.675781 23.046875 3.589844 22.773438 C 3.433594 22.316406 3.425781 22.113281 3.398438 19.769531 L 3.375 17.253906 L 3.183594 17.066406 C 3.089844 16.964844 2.890625 16.84375 2.75 16.800781 L 2.5 16.710938 L 2.5 14.492188 L 2.816406 14.351562 C 3.367188 14.105469 3.339844 14.222656 3.390625 11.429688 C 3.425781 9.167969 3.449219 8.878906 3.582031 8.496094 C 3.742188 8.027344 4.03125 7.601562 4.308594 7.421875 C 4.691406 7.167969 5.035156 7.101562 6.015625 7.09375 L 6.984375 7.09375 Z M 19.125 9.480469 L 20.214844 9.480469 L 20.234375 13.640625 C 20.257812 17.636719 20.265625 17.820312 20.40625 18.105469 C 20.609375 18.53125 21.050781 18.742188 21.707031 18.742188 C 22.332031 18.742188 22.617188 18.621094 22.957031 18.226562 C 23.15625 17.984375 23.265625 17.917969 23.441406 17.917969 L 23.675781 17.917969 L 23.675781 19.742188 C 23.675781 21.414062 23.667969 21.570312 23.550781 21.605469 C 22.648438 21.867188 20.839844 21.855469 19.964844 21.578125 C 19.683594 21.488281 19.300781 21.332031 19.117188 21.242188 C 18.71875 21.039062 18.089844 20.480469 17.949219 20.203125 C 17.890625 20.097656 17.816406 20.007812 17.78125 20.007812 C 17.75 20.007812 17.71875 20.375 17.71875 20.832031 L 17.71875 21.652344 L 14.632812 21.652344 L 14.632812 20.007812 C 14.632812 19.105469 14.601562 18.367188 14.574219 18.367188 C 14.535156 18.367188 14.023438 19.105469 13.433594 20.007812 L 12.351562 21.652344 L 8.367188 21.652344 L 8.734375 21.183594 C 8.933594 20.929688 9.691406 19.941406 10.425781 18.988281 L 11.757812 17.261719 L 11.34375 17.054688 C 10.523438 16.648438 9.78125 15.664062 9.515625 14.625 C 9.34375 13.976562 9.34375 12.855469 9.515625 12.28125 C 9.84375 11.132812 10.742188 10.132812 11.824219 9.691406 C 12.21875 9.535156 12.367188 9.519531 14.707031 9.476562 C 16.058594 9.453125 17.367188 9.445312 17.601562 9.453125 C 17.839844 9.46875 18.53125 9.480469 19.125 9.480469 Z M 19.125 9.480469 "/>
<path style=" stroke:none;fill-rule:nonzero;fill:rgb(0%,0%,0%);fill-opacity:1;" d="M 12.441406 10.160156 C 11.601562 10.324219 10.691406 11.101562 10.273438 12 C 10.066406 12.445312 10.035156 12.59375 10.015625 13.296875 C 9.992188 13.894531 10.015625 14.199219 10.109375 14.53125 C 10.441406 15.703125 11.207031 16.464844 12.367188 16.792969 L 12.78125 16.910156 L 11.34375 18.777344 C 10.558594 19.808594 9.84375 20.734375 9.765625 20.847656 L 9.625 21.054688 L 10.824219 21.054688 L 12.023438 21.046875 L 13.382812 18.980469 C 14.660156 17.039062 14.757812 16.910156 14.984375 16.890625 L 15.21875 16.867188 L 15.21875 21.054688 L 17.132812 21.054688 L 17.132812 10.078125 L 14.949219 10.085938 C 13.742188 10.09375 12.617188 10.125 12.441406 10.160156 Z M 15.21875 13.515625 L 15.21875 15.53125 L 14.351562 15.53125 C 13.273438 15.53125 12.832031 15.410156 12.382812 14.992188 C 11.398438 14.074219 11.640625 12.238281 12.816406 11.675781 C 13.160156 11.519531 13.292969 11.5 14.214844 11.5 L 15.21875 11.5 Z M 15.21875 13.515625 "/>
<path style=" stroke:none;fill-rule:nonzero;fill:rgb(0%,0%,0%);fill-opacity:1;" d="M 13.042969 12.238281 C 12.167969 12.773438 12.132812 14.179688 12.96875 14.699219 C 13.175781 14.828125 13.339844 14.859375 13.925781 14.859375 L 14.632812 14.859375 L 14.632812 12.09375 L 13.957031 12.09375 C 13.417969 12.09375 13.21875 12.125 13.042969 12.238281 Z M 13.042969 12.238281 "/>
<path style=" stroke:none;fill-rule:nonzero;fill:rgb(0%,0%,0%);fill-opacity:1;" d="M 17.71875 13.828125 C 17.71875 18.40625 17.773438 18.816406 18.382812 19.769531 C 18.734375 20.332031 19.332031 20.757812 20.109375 21.003906 C 20.535156 21.136719 20.792969 21.167969 21.65625 21.167969 C 22.21875 21.167969 22.773438 21.144531 22.890625 21.105469 L 23.089844 21.054688 L 23.089844 20.046875 C 23.089844 19.496094 23.074219 19.039062 23.058594 19.039062 C 23.042969 19.039062 22.875 19.105469 22.691406 19.195312 C 22.292969 19.367188 21.410156 19.40625 20.90625 19.269531 C 20.433594 19.144531 20.050781 18.808594 19.84375 18.359375 L 19.667969 17.957031 L 19.648438 14.015625 L 19.625 10.078125 L 17.71875 10.078125 Z M 17.71875 13.828125 "/>
</g>
</svg>
